<svg width="36" height="43" viewBox="0 0 36 43" fill="none" xmlns="http://www.w3.org/2000/svg">
<path d="M21.5078 0C23.2718 4.19529e-05 25.0549 0.281747 26.8564 0.844727C28.6955 1.37018 30.0841 1.91455 31.0225 2.47754L32.374 3.26562C33.0495 3.67844 33.5749 4.01659 33.9502 4.2793C34.926 5.06749 35.4141 5.96807 35.4141 6.98145C35.4141 7.95735 35.0197 8.98962 34.2314 10.0781C32.7678 12.1046 31.4545 13.1179 30.291 13.1182C29.6154 13.1182 28.6576 12.7056 27.4189 11.8799C25.8425 10.6037 23.7407 9.96582 21.1133 9.96582C18.6735 9.96583 16.2709 10.81 13.9062 12.499C12.7803 13.3248 11.8424 14.4889 11.0918 15.9902C10.3412 17.4916 9.96582 19.1991 9.96582 21.1133C9.96582 22.99 10.3411 24.6793 11.0918 26.1807C11.8425 27.6819 12.7994 28.8643 13.9629 29.7275C16.2525 31.3791 18.636 32.2051 21.1133 32.2051C22.2768 32.2051 23.3655 32.0552 24.3789 31.7549C25.4299 31.4546 26.1804 31.1538 26.6309 30.8535L27.6445 30.1221C28.9206 29.3715 29.8212 28.9962 30.3467 28.9961C31.5102 28.9961 32.7679 30.0465 34.1191 32.1484C34.9449 33.4622 35.3574 34.5135 35.3574 35.3018C35.3574 36.0899 35.0948 36.747 34.5693 37.2725C34.0814 37.7978 33.4997 38.2669 32.8242 38.6797C32.1486 39.0926 31.4916 39.487 30.8535 39.8623C30.2529 40.2376 28.9951 40.7257 27.0811 41.3262C25.167 41.9266 23.3092 42.2265 21.5078 42.2266C19.7437 42.2266 17.9417 42.0012 16.1025 41.5508C14.301 41.0629 12.4243 40.2749 10.4727 39.1865C8.55838 38.0605 6.83092 36.7093 5.29199 35.1328C3.75318 33.5189 2.47727 31.4732 1.46387 28.9961C0.487988 26.4813 2.50914e-05 23.7597 0 20.832C0 17.9044 0.488045 15.2582 1.46387 12.8936C2.43976 10.4913 3.67831 8.52037 5.17969 6.98145C6.71861 5.40498 8.46421 4.09101 10.416 3.04004C14.0944 1.01324 17.7919 0 21.5078 0ZM21.5107 16.2471C24.3729 16.2471 26.6932 18.5676 26.6934 21.4297C26.6934 24.2919 24.373 26.6123 21.5107 26.6123C18.6486 26.6122 16.3281 24.2919 16.3281 21.4297C16.3283 18.5677 18.6487 16.2472 21.5107 16.2471Z" fill="#9A9A9A"/>
</svg>
